<svg width="262" height="261" xmlns="http://www.w3.org/2000/svg" xmlns:xlink="http://www.w3.org/1999/xlink" xml:space="preserve" overflow="hidden"><defs><clipPath id="clip0"><rect x="2069" y="1107" width="262" height="261"/></clipPath></defs><g clip-path="url(#clip0)" transform="translate(-2069 -1107)"><path d="M2200 1107C2127.61 1107 2069 1165.38 2069 1237.5 2069 1309.62 2127.61 1368 2200 1368 2272.39 1368 2331 1309.62 2331 1237.5 2331 1165.38 2272.39 1107 2200 1107ZM2200 1333.66C2190.35 1333.66 2182.76 1326.1 2182.76 1316.49 2182.76 1306.87 2190.35 1299.32 2200 1299.32 2209.65 1299.32 2217.24 1306.87 2217.24 1316.49 2217.24 1326.1 2209.65 1333.66 2200 1333.66ZM2210.34 1253.98C2210.34 1262.91 2210.34 1285.58 2210.34 1285.58L2189.66 1285.58 2189.66 1234.07 2200 1234.07C2223.1 1234.07 2237.92 1220.67 2237.92 1199.72 2237.92 1178.09 2221.72 1161.95 2200 1161.95 2176.21 1161.95 2162.08 1176.03 2162.08 1199.72L2141.39 1199.72C2141.39 1164.69 2164.84 1141.34 2200 1141.34 2232.75 1141.34 2258.61 1167.1 2258.61 1199.72 2258.61 1228.91 2239.3 1249.86 2210.34 1253.98Z" fill="#4D4F53" fill-rule="evenodd"/></g></svg>